<?xml version="1.0" encoding="UTF-8"?>
<svg id="Layer_1" data-name="Layer 1" xmlns="http://www.w3.org/2000/svg" viewBox="0 0 674.07 114.82">
  <defs>
    <style>
      .cls-1 {
        fill: #174ca1;
      }

      .cls-2 {
        fill: #231f20;
      }
    </style>
  </defs>
  <path class="cls-2" d="M0,114.82L32.81,0h28.68l32.64,114.82h-18.21l-7.55-27.07H25.91l-7.54,27.07H0ZM30.34,71.35h33.6L47.21,10.99h-.13l-16.73,60.36h-.01Z"/>
  <path class="cls-2" d="M307.58,114.82L340.39,0h28.68l32.64,114.82h-18.21l-7.55-27.07h-42.46l-7.54,27.07h-18.37ZM337.92,71.35h33.6l-16.73-60.36h-.13l-16.73,60.36h-.01Z"/>
  <path class="cls-2" d="M103.31,114.82V0h17.72v98.75h57.78v16.08h-75.5v-.01Z"/>
  <path class="cls-2" d="M187.15,114.82V0h30.8l25.1,71.35h.32L268.47,0h30.78v114.82h-17.22V12.46h-.1l-24.93,70.7h-27.55l-24.93-70.7h-.12v102.36h-17.25Z"/>
  <path class="cls-1" d="M408.49,114.82V0h45.6c7,0,13.26,1.39,18.78,4.18s9.84,6.72,12.96,11.81,4.68,11.18,4.68,18.29v2.13c0,7.11-1.61,13.23-4.84,18.37-3.23,5.14-7.57,9.08-13.04,11.81-5.47,2.74-11.65,4.1-18.54,4.1h-27.88v44.13h-17.72ZM426.2,54.62h26.08c6.23,0,11.21-1.64,14.93-4.92,3.71-3.28,5.57-7.77,5.57-13.45v-1.64c0-5.79-1.86-10.33-5.57-13.61-3.72-3.28-8.7-4.92-14.93-4.92h-26.08v38.54h0Z"/>
  <path class="cls-1" d="M500.9,114.82V0h48.22c7.11,0,13.37,1.23,18.78,3.69s9.62,5.99,12.63,10.58c3.01,4.59,4.51,10.06,4.51,16.4v1.81c0,7.22-1.72,12.99-5.17,17.3-3.44,4.32-7.63,7.36-12.54,9.11v2.62c4.15.22,7.49,1.61,10,4.18s3.77,6.26,3.77,11.07v38.06h-17.88v-35.59c0-2.95-.77-5.3-2.29-7.05-1.53-1.75-4-2.62-7.38-2.62h-34.94v45.27h-17.71v-.01ZM518.61,53.47h28.54c6.34,0,11.26-1.61,14.76-4.84,3.5-3.22,5.25-7.63,5.25-13.2v-1.31c0-5.58-1.72-9.98-5.16-13.2-3.45-3.22-8.39-4.84-14.85-4.84h-28.54v37.4-.01Z"/>
  <path class="cls-1" d="M631.92,114.82c-12.85,0-23.07-3.81-30.64-11.43-7.57-7.62-11.36-18.64-11.36-33.04v-25.87c0-14.41,3.79-25.42,11.36-33.04S619.07.01,631.92.01s23.09,3.81,30.72,11.43c7.62,7.63,11.43,18.64,11.43,33.04v25.87c0,14.41-3.81,25.42-11.43,33.04s-17.86,11.43-30.72,11.43ZM631.92,99.52c8.27,0,14.65-2.55,19.13-7.65,4.49-5.1,6.72-12.07,6.72-20.9v-27.13c0-8.83-2.24-15.8-6.72-20.9-4.49-5.1-10.86-7.65-19.13-7.65s-14.4,2.55-18.98,7.65-6.88,12.07-6.88,20.9v27.13c0,8.83,2.29,15.8,6.88,20.9,4.58,5.1,10.91,7.65,18.98,7.65Z"/>
</svg>